<svg xmlns="http://www.w3.org/2000/svg" viewBox="0 0 449.26 123.8"><defs><style>.cls-1{font-size:46.55px;}.cls-1,.cls-2,.cls-3,.cls-4,.cls-5{fill:#fff;}.cls-1,.cls-2{font-family:Poppins-Bold, Poppins;}.cls-1,.cls-2,.cls-5{font-weight:700;}.cls-2{font-size:34.7px;}.cls-3{font-size:17.01px;font-family:Poppins-Regular, Poppins;letter-spacing:0.1em;}.cls-5{font-size:41.33px;font-family:Montserrat-Bold, Montserrat;letter-spacing:0.07em;}</style></defs><title>Asset 1</title><g id="Layer_2" data-name="Layer 2"><g id="Layer_1-2" data-name="Layer 1"><text class="cls-1" transform="translate(139.98 76.43) rotate(-0.02)">MESSENGER</text><text class="cls-2" transform="translate(140.55 29.72) rotate(-0.02)">DOC</text><text class="cls-3" transform="translate(134.83 114.05) rotate(-0.02)">MANAGE CLINIC THE SMART WAY</text><path class="cls-4" d="M20.55,93.74c-3.19-3.18-8,1.66-4.84,4.84S23.73,96.93,20.55,93.74Zm50.69-55.2c-5.53-.48-4.81-8.88.72-8.4,22.3,1.93,32.32,29.24,16.42,45.14L69.49,94.17c-8.26,8.27-8.22,9.42-8.22,14.74,40.82-3.48,59.36-53.5,30.13-82.73C66.85,1.62,25.34,10.11,12.16,41.93a48.74,48.74,0,0,0,2.78,42.82C26.62,81.49,35.09,96,26.51,104.54A11.85,11.85,0,0,1,8.14,89.78C-14.55,51.84,12.9,3.52,57.06,3.52c40.52,0,68.18,41.34,52.67,78.78a57,57,0,0,1-52.67,35.22,4.22,4.22,0,0,1-4.22-4.22v-4.38c0-5.33.06-6.48-8.21-14.75L25.73,75.28c-15.77-15.77-6-43.2,16.42-45.14,5.53-.48,6.26,7.92.73,8.4-15.25,1.32-22,20-11.18,30.77l18.89,18.9a9.17,9.17,0,0,0,12.94,0l18.89-18.9C93.22,58.51,86.47,39.87,71.24,38.54Z"/><text class="cls-5" transform="translate(38 59.17) rotate(-0.02)">...</text><line class="cls-4" x1="128.26" y1="90.02" x2="449.26" y2="90.02"/><path class="cls-4" d="M128.26,90c13.37-.3,26.75-.48,40.12-.71H409.13l40.13.71-40.13.71H168.38C155,90.5,141.63,90.31,128.26,90Z"/></g></g></svg>